# Blender v2.79 (sub 0) OBJ File: 'PrototypeAssets.blend'
# www.blender.org
mtllib post.mtl
o post_Cube.001
v -0.100000 0.000000 0.100000
v -0.100000 4.000000 0.100000
v -0.100000 0.000000 -0.100000
v -0.100000 4.000000 -0.100000
v 0.100000 0.000000 0.100000
v 0.100000 4.000000 0.100000
v 0.100000 0.000000 -0.100000
v 0.100000 4.000000 -0.100000
vt 0.000000 0.000000
vt 0.200000 1.000000
vt 0.000001 1.000000
vt 0.600001 1.000000
vt 0.400000 0.000000
vt 0.600000 0.000000
vt 0.800000 1.000000
vt 0.600001 0.000000
vt 0.800000 0.000000
vt 0.200000 0.000000
vt 0.400000 1.000000
vt 0.200001 1.000000
vt 1.000000 0.050000
vt 0.800000 0.000000
vt 1.000000 0.000000
vt 0.200000 0.000000
vt 0.400001 1.000000
vt 0.600001 1.000000
vt 0.400000 0.000000
vt 0.800000 0.050000
vn -1.0000 0.0000 0.0000
vn 0.0000 0.0000 -1.0000
vn 1.0000 0.0000 0.0000
vn 0.0000 0.0000 1.0000
vn 0.0000 1.0000 0.0000
usemtl None
s off
f 2/1/1 3/2/1 1/3/1
f 4/4/2 7/5/2 3/6/2
f 8/7/3 5/8/3 7/9/3
f 6/10/4 1/11/4 5/12/4
f 4/13/5 6/14/5 8/15/5
f 2/1/1 4/16/1 3/2/1
f 4/4/2 8/17/2 7/5/2
f 8/7/3 6/18/3 5/8/3
f 6/10/4 2/19/4 1/11/4
f 4/13/5 2/20/5 6/14/5
