# Blender v2.79 (sub 0) OBJ File: 'PrototypeAssets.blend'
# www.blender.org
mtllib uv-sphere.mtl
o Sphere
v 0.000000 0.980785 -0.195090
v 0.000000 0.831470 -0.555570
v 0.000000 0.555570 -0.831470
v 0.000000 0.195090 -0.980785
v 0.000000 -0.195090 -0.980785
v 0.000000 -0.831470 -0.555570
v 0.074658 0.980785 -0.180240
v 0.212608 0.831470 -0.513280
v 0.318190 0.555570 -0.768178
v 0.375330 0.195090 -0.906127
v 0.375330 -0.195090 -0.906127
v 0.318190 -0.555570 -0.768178
v 0.212608 -0.831470 -0.513280
v 0.074658 -0.980785 -0.180240
v 0.137950 0.980785 -0.137950
v 0.392848 0.831470 -0.392847
v 0.587938 0.555570 -0.587938
v 0.693520 0.195090 -0.693520
v 0.693520 -0.195090 -0.693520
v 0.587938 -0.555570 -0.587938
v 0.392848 -0.831470 -0.392847
v 0.137950 -0.980785 -0.137949
v 0.180240 0.980785 -0.074658
v 0.513280 0.831470 -0.212607
v 0.768178 0.555570 -0.318189
v 0.906128 0.195090 -0.375330
v 0.906128 -0.195090 -0.375330
v 0.768178 -0.555570 -0.318189
v 0.513280 -0.831470 -0.212607
v 0.180240 -0.980785 -0.074658
v 0.195091 0.980785 0.000000
v 0.555570 0.831470 0.000000
v 0.831470 0.555570 0.000000
v 0.980785 0.195090 0.000000
v 0.980785 -0.195090 0.000000
v 0.831470 -0.555570 0.000000
v 0.555570 -0.831470 0.000000
v 0.195090 -0.980785 0.000000
v 0.180240 0.980785 0.074658
v 0.513280 0.831470 0.212608
v 0.768178 0.555570 0.318190
v 0.906127 0.195090 0.375331
v 0.906127 -0.195090 0.375331
v 0.768178 -0.555570 0.318190
v 0.513280 -0.831470 0.212608
v 0.180240 -0.980785 0.074658
v 0.137950 0.980785 0.137950
v 0.392848 0.831470 0.392848
v 0.587938 0.555570 0.587938
v 0.693520 0.195090 0.693520
v 0.693520 -0.195090 0.693520
v 0.587938 -0.555570 0.587938
v 0.392848 -0.831470 0.392848
v 0.137950 -0.980785 0.137950
v 0.000000 -1.000000 0.000000
v 0.074658 0.980785 0.180240
v 0.212608 0.831470 0.513280
v 0.318190 0.555570 0.768178
v 0.375330 0.195090 0.906128
v 0.375330 -0.195090 0.906128
v 0.318190 -0.555570 0.768178
v 0.212608 -0.831470 0.513280
v 0.074658 -0.980785 0.180240
v -0.000000 0.980785 0.195091
v 0.000000 0.831470 0.555571
v -0.000000 0.555570 0.831470
v -0.000000 0.195090 0.980785
v -0.000000 -0.195090 0.980785
v -0.000000 -0.555570 0.831470
v -0.000000 -0.831470 0.555570
v 0.000000 -0.980785 0.195091
v -0.074658 0.980785 0.180240
v -0.212608 0.831470 0.513280
v -0.318190 0.555570 0.768178
v -0.375330 0.195090 0.906127
v -0.375330 -0.195090 0.906127
v -0.318190 -0.555570 0.768178
v -0.212608 -0.831470 0.513280
v -0.074658 -0.980785 0.180240
v -0.000000 1.000000 0.000001
v -0.137950 0.980785 0.137950
v -0.392848 0.831470 0.392848
v -0.587938 0.555570 0.587938
v -0.693520 0.195090 0.693520
v -0.693520 -0.195090 0.693520
v -0.587938 -0.555570 0.587938
v -0.392847 -0.831470 0.392848
v -0.137950 -0.980785 0.137950
v -0.180240 0.980785 0.074658
v -0.513280 0.831470 0.212608
v -0.768177 0.555570 0.318190
v -0.906127 0.195090 0.375330
v -0.906127 -0.195090 0.375330
v -0.768177 -0.555570 0.318190
v -0.513280 -0.831470 0.212608
v -0.180240 -0.980785 0.074658
v -0.195090 0.980785 0.000000
v -0.555570 0.831470 0.000000
v -0.831469 0.555570 0.000000
v -0.980785 0.195090 0.000000
v -0.980785 -0.195090 0.000000
v -0.831469 -0.555570 0.000000
v -0.555570 -0.831470 0.000000
v -0.195090 -0.980785 0.000000
v -0.180240 0.980785 -0.074658
v -0.513280 0.831470 -0.212607
v -0.768177 0.555570 -0.318189
v -0.906127 0.195090 -0.375330
v -0.906127 -0.195090 -0.375330
v -0.768177 -0.555570 -0.318189
v -0.513280 -0.831470 -0.212607
v -0.180240 -0.980785 -0.074657
v -0.137950 0.980785 -0.137949
v -0.392847 0.831470 -0.392847
v -0.587937 0.555570 -0.587937
v -0.693519 0.195090 -0.693519
v -0.693519 -0.195090 -0.693519
v -0.587937 -0.555570 -0.587937
v -0.392847 -0.831470 -0.392847
v -0.137950 -0.980785 -0.137949
v -0.074658 0.980785 -0.180240
v -0.212607 0.831470 -0.513280
v -0.318189 0.555570 -0.768177
v -0.375330 0.195090 -0.906127
v -0.375330 -0.195090 -0.906127
v -0.318189 -0.555570 -0.768177
v -0.212607 -0.831470 -0.513279
v -0.074658 -0.980785 -0.180240
v 0.000000 -0.555570 -0.831469
v 0.000000 -0.980785 -0.195090
vt 0.564676 0.841428
vt 0.651433 0.855395
vt 0.613079 0.895327
vt 0.576434 0.692922
vt 0.508725 0.763417
vt 0.378744 0.510697
vt 0.355067 0.639640
vt 0.343309 0.547589
vt 0.521452 0.602675
vt 0.453742 0.673170
vt 0.675110 0.726452
vt 0.686868 0.818503
vt 0.705481 0.735332
vt 0.780536 0.685214
vt 0.739873 0.779577
vt 0.446169 0.828546
vt 0.391187 0.738299
vt 0.398291 0.878393
vt 0.343309 0.788146
vt 0.713377 0.857750
vt 0.784809 0.802972
vt 0.780628 0.892762
vt 0.804305 0.636413
vt 0.796315 0.693429
vt 0.014691 0.806832
vt 0.035702 0.919987
vt 0.000236 0.895459
vt 0.465500 0.524664
vt 0.408099 0.584426
vt 0.833447 0.801954
vt 0.813395 0.693072
vt 0.282724 0.074837
vt 0.298306 0.219183
vt 0.244573 0.128039
vt 0.853420 0.891239
vt 0.266274 0.375158
vt 0.231603 0.279330
vt 0.205451 0.019907
vt 0.179959 0.055456
vt 0.031181 0.758868
vt 0.027145 0.815446
vt 0.878383 0.776678
vt 0.829174 0.684196
vt 0.123251 0.000000
vt 0.114300 0.012483
vt 0.332978 0.315012
vt 0.286760 0.451926
vt 0.920672 0.853411
vt 0.188025 0.423539
vt 0.153354 0.327710
vt 0.188025 0.179029
vt 0.005159 0.790917
vt 0.912776 0.730993
vt 0.841251 0.668154
vt 0.142175 0.089526
vt 0.101032 0.024447
vt 0.220424 0.492941
vt 0.972144 0.785039
vt 0.110143 0.452787
vt 0.075471 0.356958
vt 0.121689 0.220044
vt 0.000000 0.770122
vt 0.931389 0.671854
vt 1.000000 0.696531
vt 0.085467 0.034070
vt 0.097850 0.116931
vt 0.154398 0.517736
vt 0.847787 0.647387
vt 0.686868 0.318696
vt 0.584007 0.359096
vt 0.638990 0.268848
vt 0.055663 0.244839
vt 0.053733 0.133499
vt 0.069975 0.039888
vt 0.631885 0.408943
vt 0.518532 0.427192
vt 0.931389 0.608264
vt 0.847787 0.625057
vt 0.000000 0.747614
vt 0.521452 0.293967
vt 0.576434 0.203720
vt 0.000000 0.249640
vt 0.016540 0.136707
vt 0.009812 0.362622
vt 1.000000 0.601361
vt 0.841251 0.604563
vt 0.912776 0.549904
vt 0.465500 0.371978
vt 0.056915 0.041015
vt 0.005159 0.726819
vt 0.686868 0.078139
vt 0.622078 0.114976
vt 0.651433 0.041247
vt 0.675110 0.170190
vt 0.972144 0.514019
vt 0.453742 0.223472
vt 0.508725 0.133225
vt 0.878383 0.505658
vt 0.829174 0.589027
vt 0.014691 0.710904
vt 0.035702 0.597749
vt 0.027145 0.702291
vt 0.408099 0.312216
vt 0.613079 0.001314
vt 0.564676 0.055214
vt 0.378743 0.385945
vt 0.391187 0.158343
vt 0.446169 0.068096
vt 0.074091 0.597749
vt 0.040625 0.702291
vt 0.355067 0.257002
vt 0.833448 0.482264
vt 0.813395 0.580812
vt 0.109557 0.622278
vt 0.122447 0.517736
vt 0.175526 0.554446
vt 0.511644 0.000000
vt 0.343309 0.349053
vt 0.343309 0.108496
vt 0.398291 0.018249
vt 0.053079 0.710904
vt 0.781033 0.080013
vt 0.887514 0.036710
vt 0.867035 0.104542
vt 0.784809 0.483282
vt 0.796315 0.581169
vt 0.216151 0.622278
vt 0.136702 0.667601
vt 0.288863 0.597749
vt 0.944854 0.149865
vt 0.699941 0.080013
vt 0.767959 0.184554
vt 0.686868 0.184554
vt 0.855952 0.193168
vt 0.780536 0.590044
vt 0.739873 0.508557
vt 0.062611 0.726819
vt 0.238137 0.710904
vt 0.314798 0.702291
vt 0.937448 0.209083
vt 0.767959 0.297709
vt 0.686868 0.297709
vt 0.151392 0.726819
vt 0.705481 0.554242
vt 0.768459 0.606087
vt 0.067770 0.747614
vt 0.855952 0.289096
vt 0.937448 0.273181
vt 0.781033 0.402251
vt 0.699941 0.402251
vt 0.238137 0.806832
vt 0.151392 0.790917
vt 0.761923 0.626854
vt 0.686868 0.613381
vt 0.314798 0.815446
vt 0.867035 0.377722
vt 0.067770 0.770122
vt 0.944854 0.332399
vt 0.631885 0.487699
vt 0.638990 0.627793
vt 0.584007 0.537546
vt 0.136702 0.850135
vt 0.216151 0.895458
vt 0.761923 0.649184
vt 0.686868 0.676972
vt 0.288863 0.919987
vt 0.062611 0.790917
vt 0.805189 0.482264
vt 0.887514 0.445554
vt 0.240943 1.000000
vt 0.175526 0.963290
vt 0.958538 0.377722
vt 0.053079 0.806832
vt 0.040625 0.815446
vt 0.109557 0.895458
vt 0.074091 0.919987
vt 0.122447 1.000000
vt 0.768459 0.669677
vt 0.622078 0.781666
vt 0.511644 0.896642
vt 0.471055 0.938900
vt 0.417098 0.470764
vt 0.343309 0.156426
vt 0.343309 0.400936
vt 0.559121 0.469450
vt 0.000236 0.622278
vt 0.417098 0.425877
vt 0.805189 0.000000
vt 0.240943 0.517736
vt 0.958538 0.104542
vt 0.686868 0.577946
vt 0.518532 0.469450
vn 0.1393 0.7002 -0.7002
vn 0.1807 0.3764 -0.9087
vn 0.3966 -0.7002 -0.5936
vn 0.1951 0.0000 -0.9808
vn -0.1393 0.7002 -0.7002
vn 0.0759 0.9212 -0.3816
vn 0.5556 0.0000 -0.8315
vn 0.5147 -0.3764 -0.7703
vn 0.8315 0.0000 -0.5556
vn 0.3966 0.7002 -0.5936
vn 0.0555 0.9950 -0.0831
vn 0.2161 -0.9212 -0.3235
vn 0.1807 -0.3764 -0.9087
vn 0.3235 0.9212 -0.2161
vn 0.1393 -0.7002 -0.7002
vn 0.7703 -0.3764 -0.5147
vn 0.5936 0.7002 -0.3966
vn 0.9808 0.0000 -0.1951
vn 0.5936 -0.7002 -0.3966
vn 0.0555 -0.9950 -0.0831
vn 0.3816 0.9212 -0.0759
vn 0.3235 -0.9212 -0.2161
vn 0.9087 0.3764 -0.1807
vn 0.0831 0.9950 -0.0555
vn 0.7002 0.7002 -0.1393
vn 0.9808 0.0000 0.1951
vn 0.9087 -0.3764 -0.1807
vn 0.0831 -0.9950 -0.0555
vn 0.3816 0.9212 0.0759
vn 0.3816 -0.9212 -0.0759
vn 0.9087 0.3764 0.1807
vn 0.7002 -0.7002 -0.1393
vn 0.0980 0.9950 -0.0195
vn 0.7002 0.7002 0.1393
vn 0.8315 0.0000 0.5556
vn 0.9087 -0.3764 0.1807
vn 0.0980 -0.9950 -0.0195
vn 0.5936 0.7002 0.3966
vn 0.3816 -0.9212 0.0759
vn 0.7703 0.3764 0.5147
vn 0.7002 -0.7002 0.1393
vn 0.3235 0.9212 0.2161
vn 0.0980 0.9950 0.0195
vn 0.5556 0.0000 0.8315
vn 0.5936 -0.7002 0.3966
vn 0.7703 -0.3764 0.5147
vn 0.3235 -0.9212 0.2161
vn 0.5147 0.3764 0.7703
vn 0.2161 0.9212 0.3235
vn 0.0831 0.9950 0.0555
vn 0.0980 -0.9950 0.0195
vn 0.1951 0.0000 0.9808
vn 0.3966 -0.7002 0.5936
vn 0.5147 -0.3764 0.7703
vn 0.3966 0.7002 0.5936
vn 0.0759 0.9212 0.3816
vn 0.1807 0.3764 0.9087
vn 0.0555 0.9950 0.0831
vn 0.2161 -0.9212 0.3235
vn 0.0831 -0.9950 0.0555
vn 0.1393 -0.7002 0.7002
vn 0.1807 -0.3764 0.9087
vn 0.1393 0.7002 0.7002
vn -0.1951 0.0000 0.9808
vn -0.0759 0.9212 0.3816
vn 0.0195 0.9950 0.0980
vn 0.0759 -0.9212 0.3816
vn -0.1807 0.3764 0.9087
vn 0.0555 -0.9950 0.0831
vn -0.1393 -0.7002 0.7002
vn -0.1807 -0.3764 0.9087
vn -0.1393 0.7002 0.7002
vn -0.5556 0.0000 0.8315
vn -0.0759 -0.9212 0.3816
vn -0.0195 0.9950 0.0980
vn -0.5147 0.3764 0.7703
vn 0.0195 -0.9950 0.0980
vn -0.2161 0.9212 0.3235
vn -0.3966 -0.7002 0.5936
vn -0.5147 -0.3764 0.7703
vn -0.3966 0.7002 0.5936
vn -0.8315 0.0000 0.5556
vn -0.2161 -0.9212 0.3235
vn -0.7703 0.3764 0.5147
vn -0.0555 0.9950 0.0831
vn -0.0195 -0.9950 0.0980
vn -0.3235 0.9212 0.2161
vn -0.5936 -0.7002 0.3966
vn -0.7703 -0.3764 0.5147
vn -0.5936 0.7002 0.3966
vn -0.9808 0.0000 0.1951
vn -0.9087 0.3764 0.1807
vn -0.0555 -0.9950 0.0831
vn -0.0831 0.9950 0.0555
vn -0.3816 0.9212 0.0759
vn -0.3235 -0.9212 0.2161
vn -0.9087 -0.3764 0.1807
vn -0.7002 0.7002 0.1393
vn -0.9808 0.0000 -0.1951
vn -0.7002 -0.7002 0.1393
vn -0.0980 0.9950 0.0195
vn -0.0831 -0.9950 0.0555
vn -0.3816 0.9212 -0.0759
vn -0.3816 -0.9212 0.0759
vn -0.9087 0.3764 -0.1807
vn -0.7002 0.7002 -0.1393
vn -0.8315 0.0000 -0.5556
vn -0.7002 -0.7002 -0.1393
vn -0.0980 0.9950 -0.0195
vn -0.0980 -0.9950 0.0195
vn -0.3235 0.9212 -0.2161
vn -0.9087 -0.3764 -0.1807
vn -0.7703 0.3764 -0.5147
vn -0.3816 -0.9212 -0.0759
vn -0.5936 0.7002 -0.3966
vn -0.5556 0.0000 -0.8315
vn -0.5936 -0.7002 -0.3966
vn -0.0831 0.9950 -0.0555
vn -0.2161 0.9212 -0.3235
vn -0.7703 -0.3764 -0.5147
vn -0.0980 -0.9950 -0.0195
vn -0.3235 -0.9212 -0.2161
vn -0.5147 0.3764 -0.7703
vn -0.5147 -0.3764 -0.7703
vn -0.3966 0.7002 -0.5936
vn -0.0195 -0.9950 -0.0980
vn -0.3966 -0.7002 -0.5936
vn -0.0831 -0.9950 -0.0555
vn -0.2161 -0.9212 -0.3235
vn -0.0555 0.9950 -0.0831
vn -0.1807 -0.3764 -0.9087
vn -0.0555 -0.9950 -0.0831
vn -0.0759 -0.9212 -0.3816
vn -0.1393 -0.7002 -0.7002
vn -0.0195 0.9950 -0.0980
vn -0.1807 0.3764 -0.9087
vn -0.1951 0.0000 -0.9808
vn 0.7703 0.3764 -0.5147
vn 0.0195 -0.9950 -0.0980
vn 0.0759 -0.9212 -0.3816
vn 0.5147 0.3764 -0.7703
vn 0.2161 0.9212 -0.3235
vn 0.0195 0.9950 -0.0980
vn -0.0759 0.9212 -0.3816
usemtl None
s off
f 9/1/1 2/2/1 8/3/1
f 4/4/2 9/1/2 10/5/2
f 13/6/3 20/7/3 21/8/3
f 5/9/4 10/5/4 11/10/4
f 2/2/5 123/11/5 122/12/5
f 2/13/6 7/14/6 8/15/6
f 11/10/7 18/16/7 19/17/7
f 20/7/8 11/10/8 19/17/8
f 19/17/9 26/18/9 27/19/9
f 9/20/10 16/21/10 17/22/10
f 80/23/11 15/24/11 7/14/11
f 22/25/12 13/26/12 21/27/12
f 129/28/13 11/10/13 12/29/13
f 24/30/14 15/24/14 23/31/14
f 13/6/15 129/28/15 12/29/15
f 20/32/16 27/33/16 28/34/16
f 17/22/17 24/30/17 25/35/17
f 27/33/18 34/36/18 35/37/18
f 21/38/19 28/34/19 29/39/19
f 55/40/20 14/41/20 22/25/20
f 32/42/21 23/31/21 31/43/21
f 22/44/22 29/39/22 30/45/22
f 26/46/23 33/47/23 34/36/23
f 80/23/24 23/31/24 15/24/24
f 25/35/25 32/42/25 33/48/25
f 35/37/26 42/49/26 43/50/26
f 28/34/27 35/37/27 36/51/27
f 55/40/28 22/25/28 30/52/28
f 40/53/29 31/43/29 39/54/29
f 30/45/30 37/55/30 38/56/30
f 34/36/31 41/57/31 42/49/31
f 29/39/32 36/51/32 37/55/32
f 80/23/33 31/43/33 23/31/33
f 41/58/34 32/42/34 40/53/34
f 43/50/35 50/59/35 51/60/35
f 36/51/36 43/50/36 44/61/36
f 55/40/37 30/52/37 38/62/37
f 41/58/38 48/63/38 49/64/38
f 46/65/39 37/55/39 45/66/39
f 50/59/40 41/57/40 49/67/40
f 37/55/41 44/61/41 45/66/41
f 48/63/42 39/54/42 47/68/42
f 80/23/43 39/54/43 31/43/43
f 51/69/44 59/70/44 60/71/44
f 45/66/45 52/72/45 53/73/45
f 44/61/46 51/60/46 52/72/46
f 46/65/47 53/73/47 54/74/47
f 50/75/48 58/76/48 59/70/48
f 57/77/49 47/68/49 56/78/49
f 80/23/50 47/68/50 39/54/50
f 55/40/51 38/62/51 46/79/51
f 60/71/52 67/80/52 68/81/52
f 53/73/53 61/82/53 62/83/53
f 52/72/54 60/84/54 61/82/54
f 49/64/55 57/77/55 58/85/55
f 57/77/56 64/86/56 65/87/56
f 67/80/57 58/76/57 66/88/57
f 80/23/58 56/78/58 47/68/58
f 54/74/59 62/83/59 63/89/59
f 55/40/60 46/79/60 54/90/60
f 62/91/61 69/92/61 70/93/61
f 61/94/62 68/81/62 69/92/62
f 58/85/63 65/87/63 66/95/63
f 68/81/64 75/96/64 76/97/64
f 73/98/65 64/86/65 72/99/65
f 80/23/66 64/86/66 56/78/66
f 63/100/67 70/101/67 71/102/67
f 75/96/68 66/88/68 74/103/68
f 55/40/69 54/90/69 63/100/69
f 78/104/70 69/92/70 77/105/70
f 69/92/71 76/97/71 77/105/71
f 66/88/72 73/106/72 74/103/72
f 76/97/73 84/107/73 85/108/73
f 71/102/74 78/109/74 79/110/74
f 80/23/75 72/99/75 64/86/75
f 84/107/76 74/103/76 83/111/76
f 55/40/77 63/100/77 71/102/77
f 82/112/78 72/99/78 81/113/78
f 87/114/79 77/115/79 86/116/79
f 77/105/80 85/108/80 86/117/80
f 74/103/81 82/118/81 83/111/81
f 85/108/82 92/119/82 93/120/82
f 79/110/83 87/114/83 88/121/83
f 92/122/84 83/123/84 91/124/84
f 80/23/85 81/113/85 72/99/85
f 55/40/86 71/102/86 79/110/86
f 90/125/87 81/113/87 89/126/87
f 87/114/88 94/127/88 95/128/88
f 86/116/89 93/129/89 94/127/89
f 83/123/90 90/130/90 91/124/90
f 93/131/91 100/132/91 101/133/91
f 92/122/92 99/134/92 100/132/92
f 55/40/93 79/110/93 88/121/93
f 80/23/94 89/126/94 81/113/94
f 90/125/95 97/135/95 98/136/95
f 88/121/96 95/128/96 96/137/96
f 102/138/97 93/129/97 101/139/97
f 91/124/98 98/140/98 99/134/98
f 101/133/99 108/141/99 109/142/99
f 95/128/100 102/138/100 103/143/100
f 80/23/101 97/135/101 89/126/101
f 55/40/102 88/121/102 96/137/102
f 106/144/103 97/135/103 105/145/103
f 96/137/104 103/143/104 104/146/104
f 100/132/105 107/147/105 108/141/105
f 99/134/106 106/148/106 107/147/106
f 109/142/107 116/149/107 117/150/107
f 103/143/108 110/151/108 111/152/108
f 80/23/109 105/145/109 97/135/109
f 55/40/110 96/137/110 104/146/110
f 106/144/111 113/153/111 114/154/111
f 102/138/112 109/155/112 110/151/112
f 108/141/113 115/156/113 116/149/113
f 104/146/114 111/152/114 112/157/114
f 107/147/115 114/158/115 115/156/115
f 117/159/116 124/160/116 125/161/116
f 119/162/117 110/151/117 118/163/117
f 80/23/118 113/153/118 105/145/118
f 114/154/119 121/164/119 122/165/119
f 110/151/120 117/166/120 118/163/120
f 55/40/121 104/146/121 112/157/121
f 112/157/122 119/162/122 120/167/122
f 124/168/123 115/156/123 123/169/123
f 118/163/124 125/170/124 126/171/124
f 115/156/125 122/172/125 123/169/125
f 55/40/126 128/173/126 130/174/126
f 127/175/127 118/163/127 126/171/127
f 55/40/128 112/157/128 120/167/128
f 120/167/129 127/175/129 128/173/129
f 80/23/130 121/164/130 113/153/130
f 129/28/131 125/161/131 5/9/131
f 55/40/132 120/167/132 128/173/132
f 130/174/133 127/175/133 6/176/133
f 6/176/134 126/171/134 129/177/134
f 80/23/135 1/178/135 121/164/135
f 3/179/136 124/160/136 123/11/136
f 4/4/137 125/161/137 124/160/137
f 26/18/138 17/180/138 25/181/138
f 55/40/139 130/174/139 14/41/139
f 14/41/140 6/176/140 13/26/140
f 18/16/141 9/1/141 17/180/141
f 8/15/142 15/24/142 16/21/142
f 80/23/143 7/14/143 1/178/143
f 122/165/144 1/178/144 2/13/144
f 9/1/1 3/179/1 2/2/1
f 4/4/2 3/179/2 9/1/2
f 13/6/3 12/29/3 20/7/3
f 5/9/4 4/4/4 10/5/4
f 2/2/5 3/179/5 123/11/5
f 2/13/6 1/178/6 7/14/6
f 11/10/7 10/5/7 18/16/7
f 20/7/8 12/29/8 11/10/8
f 19/17/9 18/16/9 26/18/9
f 9/20/10 8/15/10 16/21/10
f 22/25/12 14/41/12 13/26/12
f 129/28/13 5/9/13 11/10/13
f 24/30/14 16/21/14 15/24/14
f 13/6/15 6/182/15 129/28/15
f 20/32/16 19/183/16 27/33/16
f 17/22/17 16/21/17 24/30/17
f 27/33/18 26/46/18 34/36/18
f 21/38/19 20/32/19 28/34/19
f 32/42/21 24/30/21 23/31/21
f 22/44/22 21/38/22 29/39/22
f 26/46/23 25/184/23 33/47/23
f 25/35/25 24/30/25 32/42/25
f 35/37/26 34/36/26 42/49/26
f 28/34/27 27/33/27 35/37/27
f 40/53/29 32/42/29 31/43/29
f 30/45/30 29/39/30 37/55/30
f 34/36/31 33/47/31 41/57/31
f 29/39/32 28/34/32 36/51/32
f 41/58/34 33/48/34 32/42/34
f 43/50/35 42/49/35 50/59/35
f 36/51/36 35/37/36 43/50/36
f 41/58/38 40/53/38 48/63/38
f 46/65/39 38/56/39 37/55/39
f 50/59/40 42/49/40 41/57/40
f 37/55/41 36/51/41 44/61/41
f 48/63/42 40/53/42 39/54/42
f 51/69/44 50/75/44 59/70/44
f 45/66/45 44/61/45 52/72/45
f 44/61/46 43/50/46 51/60/46
f 46/65/47 45/66/47 53/73/47
f 50/75/48 49/185/48 58/76/48
f 57/77/49 48/63/49 47/68/49
f 60/71/52 59/70/52 67/80/52
f 53/73/53 52/72/53 61/82/53
f 52/72/54 51/60/54 60/84/54
f 49/64/55 48/63/55 57/77/55
f 57/77/56 56/78/56 64/86/56
f 67/80/57 59/70/57 58/76/57
f 54/74/59 53/73/59 62/83/59
f 62/91/61 61/94/61 69/92/61
f 61/94/62 60/71/62 68/81/62
f 58/85/63 57/77/63 65/87/63
f 68/81/64 67/80/64 75/96/64
f 73/98/65 65/87/65 64/86/65
f 63/100/67 62/186/67 70/101/67
f 75/96/68 67/80/68 66/88/68
f 78/104/70 70/93/70 69/92/70
f 69/92/71 68/81/71 76/97/71
f 66/88/72 65/187/72 73/106/72
f 76/97/73 75/96/73 84/107/73
f 71/102/74 70/101/74 78/109/74
f 84/107/76 75/96/76 74/103/76
f 82/112/78 73/98/78 72/99/78
f 87/114/79 78/109/79 77/115/79
f 77/105/80 76/97/80 85/108/80
f 74/103/81 73/106/81 82/118/81
f 85/108/82 84/107/82 92/119/82
f 79/110/83 78/109/83 87/114/83
f 92/122/84 84/188/84 83/123/84
f 90/125/87 82/112/87 81/113/87
f 87/114/88 86/116/88 94/127/88
f 86/116/89 85/189/89 93/129/89
f 83/123/90 82/190/90 90/130/90
f 93/131/91 92/122/91 100/132/91
f 92/122/92 91/124/92 99/134/92
f 90/125/95 89/126/95 97/135/95
f 88/121/96 87/114/96 95/128/96
f 102/138/97 94/127/97 93/129/97
f 91/124/98 90/130/98 98/140/98
f 101/133/99 100/132/99 108/141/99
f 95/128/100 94/127/100 102/138/100
f 106/144/103 98/136/103 97/135/103
f 96/137/104 95/128/104 103/143/104
f 100/132/105 99/134/105 107/147/105
f 99/134/106 98/140/106 106/148/106
f 109/142/107 108/141/107 116/149/107
f 103/143/108 102/138/108 110/151/108
f 106/144/111 105/145/111 113/153/111
f 102/138/112 101/139/112 109/155/112
f 108/141/113 107/147/113 115/156/113
f 104/146/114 103/143/114 111/152/114
f 107/147/115 106/148/115 114/158/115
f 117/159/116 116/191/116 124/160/116
f 119/162/117 111/152/117 110/151/117
f 114/154/119 113/153/119 121/164/119
f 110/151/120 109/155/120 117/166/120
f 112/157/122 111/152/122 119/162/122
f 124/168/123 116/149/123 115/156/123
f 118/163/124 117/166/124 125/170/124
f 115/156/125 114/158/125 122/172/125
f 127/175/127 119/162/127 118/163/127
f 120/167/129 119/162/129 127/175/129
f 129/28/131 126/192/131 125/161/131
f 130/174/133 128/173/133 127/175/133
f 6/176/134 127/175/134 126/171/134
f 3/179/136 4/4/136 124/160/136
f 4/4/137 5/9/137 125/161/137
f 26/18/138 18/16/138 17/180/138
f 14/41/140 130/174/140 6/176/140
f 18/16/141 10/5/141 9/1/141
f 8/15/142 7/14/142 15/24/142
f 122/165/144 121/164/144 1/178/144
