# Blender v2.79 (sub 0) OBJ File: 'PrototypeAssets.blend'
# www.blender.org
mtllib wall-section.mtl
o wall-section_Plane.004
v -4.000000 0.000000 0.125000
v 4.000000 0.000000 0.125000
v -4.000000 2.000000 0.125000
v 4.000000 2.000000 0.125000
v 4.000000 0.000000 -0.125000
v -4.000000 0.000000 -0.125000
v 4.000000 2.000000 -0.125000
v -4.000000 2.000000 -0.125000
vt 0.000000 0.000000
vt 0.444444 1.000000
vt 0.000000 1.000000
vt 0.888889 1.000000
vt 0.444444 0.000000
vt 0.888889 0.000000
vt 0.944444 0.000000
vt 0.888889 1.000000
vt 0.888889 0.000000
vt 1.000000 0.000000
vt 0.944444 0.250000
vt 0.944444 0.000000
vt 1.000000 0.250000
vt 0.944444 0.500000
vt 0.944444 0.250000
vt 0.444444 0.000000
vt 0.444444 1.000000
vt 0.944444 1.000000
vt 1.000000 0.250000
vt 1.000000 0.500000
vn 0.0000 0.0000 1.0000
vn -0.0000 0.0000 -1.0000
vn 0.0000 1.0000 0.0000
vn -1.0000 0.0000 0.0000
vn 1.0000 0.0000 0.0000
usemtl None
s off
f 2/1/1 3/2/1 1/3/1
f 6/4/2 7/5/2 5/6/2
f 7/7/3 3/8/3 4/9/3
f 8/10/4 1/11/4 3/12/4
f 5/13/5 4/14/5 2/15/5
f 2/1/1 4/16/1 3/2/1
f 6/4/2 8/17/2 7/5/2
f 7/7/3 8/18/3 3/8/3
f 8/10/4 6/19/4 1/11/4
f 5/13/5 7/20/5 4/14/5
