# Blender v2.79 (sub 0) OBJ File: 'Blocky.blend'
# www.blender.org
mtllib sky.mtl
o Sphere
v -0.000001 73.139633 -73.139610
v -0.000001 39.582890 -95.561516
v -0.000001 -39.582893 -95.561516
v -0.000001 -95.561539 -39.582867
v 15.147709 95.561539 -36.569798
v 27.989321 73.139633 -67.572182
v 36.569813 39.582890 -88.287323
v 39.582882 -0.000003 -95.561516
v 36.569813 -39.582893 -88.287323
v 27.989321 -73.139633 -67.572182
v 15.147711 -95.561539 -36.569798
v 27.989319 95.561539 -27.989305
v 51.717522 73.139633 -51.717506
v 67.572205 39.582890 -67.572182
v 73.139626 -0.000003 -73.139610
v 67.572205 -39.582893 -67.572182
v 51.717522 -73.139633 -51.717506
v 27.989321 -95.561539 -27.989304
v 36.569805 95.561539 -15.147700
v 67.572189 73.139633 -27.989304
v 88.287338 39.582890 -36.569790
v 95.561523 -0.000003 -39.582859
v 88.287338 -39.582893 -36.569790
v 67.572189 -73.139633 -27.989304
v 36.569809 -95.561539 -15.147694
v 39.582870 95.561539 0.000010
v 73.139610 73.139633 0.000016
v 95.561516 39.582890 0.000022
v 103.435043 -0.000003 0.000022
v 95.561516 -39.582893 0.000022
v 73.139610 -73.139633 0.000016
v 39.582870 -95.561539 0.000018
v 36.569801 95.561539 15.147718
v 67.572182 73.139633 27.989336
v 88.287323 39.582890 36.569836
v 95.561508 -0.000003 39.582905
v 88.287323 -39.582893 36.569836
v 67.572182 -73.139633 27.989336
v 36.569798 -95.561539 15.147726
v 27.989313 95.561539 27.989328
v 51.717495 73.139633 51.717533
v 67.572182 39.582890 67.572220
v 73.139595 -0.000003 73.139641
v 67.572182 -39.582893 67.572220
v 51.717495 -73.139633 51.717533
v 27.989305 -95.561539 27.989334
v 15.147700 95.561539 36.569813
v 27.989294 73.139633 67.572205
v 36.569782 39.582890 88.287346
v 39.582844 -0.000003 95.561531
v 36.569782 -39.582893 88.287346
v 27.989294 -73.139633 67.572205
v 15.147693 -95.561539 36.569817
v -0.000009 95.561539 39.582878
v -0.000029 73.139633 73.139618
v -0.000032 39.582890 95.561523
v -0.000035 -0.000003 103.435043
v -0.000032 -39.582893 95.561523
v -0.000029 -73.139633 73.139618
v -0.000018 -95.561539 39.582878
v -15.147718 95.561539 36.569809
v -27.989344 73.139633 67.572182
v -36.569839 39.582890 88.287323
v -39.582909 -0.000003 95.561508
v -36.569839 -39.582893 88.287323
v -27.989344 -73.139633 67.572182
v -15.147726 -95.561539 36.569805
v -27.989321 95.561539 27.989319
v -51.717533 73.139633 51.717495
v -67.572220 39.582890 67.572174
v -73.139641 -0.000003 73.139595
v -67.572220 -39.582893 67.572174
v -51.717533 -73.139633 51.717495
v -27.989328 -95.561539 27.989313
v -36.569805 95.561539 15.147706
v -67.572197 73.139633 27.989294
v -88.287338 39.582890 36.569782
v -95.561523 -0.000003 39.582844
v -88.287338 -39.582893 36.569782
v -67.572197 -73.139633 27.989294
v -36.569809 -95.561539 15.147698
v -39.582867 95.561539 -0.000002
v -73.139603 73.139633 -0.000027
v -95.561508 39.582890 -0.000030
v -103.435028 -0.000003 -0.000039
v -95.561508 -39.582893 -0.000030
v -73.139603 -73.139633 -0.000027
v -39.582867 -95.561539 -0.000012
v -36.569798 95.561539 -15.147709
v -67.572166 73.139633 -27.989336
v -88.287308 39.582890 -36.569832
v -95.561485 -0.000003 -39.582909
v -88.287308 -39.582893 -36.569832
v -67.572166 -73.139633 -27.989336
v -36.569794 -95.561539 -15.147718
v -27.989305 95.561539 -27.989309
v -51.717476 73.139633 -51.717522
v -67.572151 39.582890 -67.572212
v -73.139565 -0.000003 -73.139633
v -67.572151 -39.582893 -67.572212
v -51.717476 -73.139633 -51.717522
v -27.989300 -95.561539 -27.989319
v -15.147698 95.561539 -36.569794
v -27.989273 73.139633 -67.572182
v -36.569756 39.582890 -88.287315
v -39.582813 -0.000003 -95.561516
v -36.569756 -39.582893 -88.287315
v -27.989273 -73.139633 -67.572182
v -15.147689 -95.561539 -36.569798
v -0.000001 103.435066 0.000023
v 0.000010 95.561539 -39.582855
v 0.000067 -0.000003 -103.435013
v 0.000044 -73.139633 -73.139580
v -0.000001 -103.435066 0.000008
vt 0.952150 0.784383
vt 0.949483 0.783824
vt 0.952319 0.781611
vt 0.947133 0.796169
vt 0.946191 0.798345
vt 0.947293 0.789531
vt 0.946408 0.815190
vt 0.948438 0.819959
vt 0.946537 0.809128
vt 0.951607 0.828548
vt 0.951417 0.830719
vt 0.955385 0.833033
vt 0.955385 0.782774
vt 0.948246 0.824270
vt 0.952469 0.787030
vt 0.949980 0.793697
vt 0.949277 0.788967
vt 0.947312 0.811413
vt 0.946078 0.805291
vt 0.949109 0.828180
vt 0.948180 0.802102
vt 0.951826 0.832773
vt 0.949525 0.816058
vt 0.947583 0.820556
vt 0.950781 0.831218
vt 0.951400 0.797414
vt 0.949712 0.824642
vt 0.952732 0.834427
vt 0.953203 0.789180
vt 0.953300 0.799752
vt 0.952652 0.809472
vt 0.950128 0.806656
vt 0.952442 0.827155
vt 0.953988 0.835486
vt 0.954233 0.790565
vt 0.952348 0.818908
vt 0.955443 0.833737
vt 0.952984 0.833114
vt 0.955419 0.835840
vt 0.955413 0.791029
vt 0.955436 0.800525
vt 0.955458 0.819838
vt 0.955451 0.810395
vt 0.956590 0.790521
vt 0.957566 0.799678
vt 0.958463 0.827076
vt 0.955456 0.827976
vt 0.957896 0.833054
vt 0.958243 0.809383
vt 0.956846 0.835453
vt 0.958089 0.834363
vt 0.957609 0.789096
vt 0.961364 0.815882
vt 0.958562 0.818818
vt 0.961173 0.824487
vt 0.960747 0.806482
vt 0.960841 0.793497
vt 0.959449 0.797271
vt 0.962661 0.801855
vt 0.963266 0.820334
vt 0.960081 0.831102
vt 0.958976 0.832685
vt 0.958326 0.786916
vt 0.963540 0.811160
vt 0.959359 0.830619
vt 0.958625 0.784255
vt 0.963659 0.795872
vt 0.964719 0.804982
vt 0.962540 0.824076
vt 0.961722 0.828016
vt 0.964388 0.814920
vt 0.961506 0.788734
vt 0.963438 0.789224
vt 0.964538 0.798021
vt 0.959140 0.828450
vt 0.958432 0.781488
vt 0.964192 0.808846
vt 0.957748 0.779056
vt 0.961255 0.783590
vt 0.961828 0.782987
vt 0.962465 0.803092
vt 0.962296 0.819761
vt 0.958310 0.826527
vt 0.960017 0.778899
vt 0.958948 0.778489
vt 0.962759 0.791397
vt 0.959313 0.798907
vt 0.960874 0.815774
vt 0.956972 0.825201
vt 0.956663 0.777393
vt 0.955354 0.776818
vt 0.955324 0.774434
vt 0.957921 0.775595
vt 0.955285 0.784827
vt 0.959483 0.786560
vt 0.955312 0.811929
vt 0.958405 0.812933
vt 0.955298 0.776888
vt 0.955289 0.797410
vt 0.955347 0.824741
vt 0.951110 0.786723
vt 0.952234 0.813028
vt 0.952738 0.775704
vt 0.951668 0.778639
vt 0.951287 0.799047
vt 0.953729 0.825245
vt 0.954051 0.777448
vt 0.952982 0.779154
vt 0.947894 0.791674
vt 0.948192 0.803332
vt 0.952410 0.826605
vt 0.948838 0.783247
vt 0.949806 0.815939
vt 0.950676 0.779092
vn -0.1098 0.8264 0.5522
vn -0.1915 0.1915 0.9626
vn -0.1632 -0.5481 0.8203
vn -0.0388 -0.9800 0.1949
vn -0.0388 0.9800 0.1949
vn -0.1632 0.5481 0.8203
vn -0.1915 -0.1915 0.9626
vn -0.1098 -0.8264 0.5522
vn -0.1104 0.9800 0.1653
vn -0.4647 0.5481 0.6954
vn -0.5453 -0.1915 0.8161
vn -0.3128 -0.8264 0.4681
vn -0.3128 0.8264 0.4681
vn -0.5453 0.1915 0.8161
vn -0.4647 -0.5481 0.6954
vn -0.1104 -0.9800 0.1653
vn -0.8161 -0.1915 0.5453
vn -0.4681 -0.8264 0.3128
vn -0.4681 0.8264 0.3128
vn -0.8161 0.1915 0.5453
vn -0.6954 -0.5481 0.4647
vn -0.1653 -0.9800 0.1104
vn -0.1653 0.9800 0.1104
vn -0.6954 0.5481 0.4647
vn -0.5522 0.8264 0.1098
vn -0.9626 0.1915 0.1915
vn -0.8203 -0.5481 0.1632
vn -0.1949 -0.9800 0.0388
vn -0.1949 0.9800 0.0388
vn -0.8203 0.5481 0.1632
vn -0.9626 -0.1915 0.1915
vn -0.5522 -0.8264 0.1098
vn -0.8203 -0.5481 -0.1632
vn -0.1949 -0.9800 -0.0388
vn -0.1949 0.9800 -0.0388
vn -0.8203 0.5481 -0.1632
vn -0.9626 -0.1915 -0.1915
vn -0.5522 -0.8264 -0.1098
vn -0.5522 0.8264 -0.1098
vn -0.9626 0.1915 -0.1915
vn -0.1653 0.9800 -0.1104
vn -0.6954 0.5481 -0.4647
vn -0.8161 -0.1915 -0.5453
vn -0.4681 -0.8264 -0.3128
vn -0.4681 0.8264 -0.3128
vn -0.8161 0.1915 -0.5453
vn -0.6954 -0.5481 -0.4647
vn -0.1653 -0.9800 -0.1104
vn -0.3128 -0.8264 -0.4681
vn -0.3128 0.8264 -0.4681
vn -0.5453 0.1915 -0.8161
vn -0.4647 -0.5481 -0.6954
vn -0.1104 -0.9800 -0.1653
vn -0.1104 0.9800 -0.1653
vn -0.4647 0.5481 -0.6954
vn -0.5453 -0.1915 -0.8161
vn -0.1098 0.8264 -0.5522
vn -0.1915 0.1915 -0.9626
vn -0.1632 -0.5481 -0.8203
vn -0.0388 -0.9800 -0.1949
vn -0.0388 0.9800 -0.1949
vn -0.1632 0.5481 -0.8203
vn -0.1915 -0.1915 -0.9626
vn -0.1098 -0.8264 -0.5522
vn 0.0388 -0.9800 -0.1949
vn 0.0388 0.9800 -0.1949
vn 0.1632 0.5481 -0.8203
vn 0.1915 -0.1915 -0.9626
vn 0.1098 -0.8264 -0.5522
vn 0.1098 0.8264 -0.5522
vn 0.1915 0.1915 -0.9626
vn 0.1632 -0.5481 -0.8203
vn 0.4647 0.5481 -0.6954
vn 0.5453 -0.1915 -0.8161
vn 0.3128 -0.8264 -0.4681
vn 0.3128 0.8264 -0.4681
vn 0.5453 0.1915 -0.8161
vn 0.4647 -0.5481 -0.6954
vn 0.1104 -0.9800 -0.1653
vn 0.1104 0.9800 -0.1653
vn 0.4681 0.8264 -0.3128
vn 0.8161 0.1915 -0.5453
vn 0.6954 -0.5481 -0.4647
vn 0.1653 -0.9800 -0.1104
vn 0.1653 0.9800 -0.1104
vn 0.6954 0.5481 -0.4647
vn 0.8161 -0.1915 -0.5453
vn 0.4681 -0.8264 -0.3128
vn 0.9626 0.1915 -0.1915
vn 0.8203 -0.5481 -0.1632
vn 0.1949 -0.9800 -0.0388
vn 0.1949 0.9800 -0.0388
vn 0.8203 0.5481 -0.1632
vn 0.9626 -0.1915 -0.1915
vn 0.5522 -0.8264 -0.1098
vn 0.5522 0.8264 -0.1098
vn 0.1949 0.9800 0.0388
vn 0.8203 0.5481 0.1632
vn 0.9626 -0.1915 0.1915
vn 0.5522 -0.8264 0.1098
vn 0.5522 0.8264 0.1098
vn 0.9626 0.1915 0.1915
vn 0.8203 -0.5481 0.1632
vn 0.1949 -0.9800 0.0388
vn 0.8161 -0.1915 0.5453
vn 0.4681 -0.8264 0.3128
vn 0.4681 0.8264 0.3128
vn 0.8161 0.1915 0.5453
vn 0.6954 -0.5481 0.4647
vn 0.1653 -0.9800 0.1104
vn 0.1653 0.9800 0.1104
vn 0.6954 0.5481 0.4647
vn 0.3128 0.8264 0.4681
vn 0.5453 0.1915 0.8161
vn 0.4647 -0.5481 0.6954
vn 0.1104 -0.9800 0.1653
vn 0.1104 0.9800 0.1653
vn 0.4647 0.5481 0.6954
vn 0.5453 -0.1915 0.8161
vn 0.3128 -0.8264 0.4681
vn 0.1632 -0.5481 0.8203
vn 0.0388 -0.9800 0.1949
vn 0.0388 0.9800 0.1949
vn 0.1632 0.5481 0.8203
vn 0.1915 -0.1915 0.9626
vn 0.1098 -0.8264 0.5522
vn 0.1098 0.8264 0.5522
vn 0.1915 0.1915 0.9626
usemtl Default
s off
f 11/1/1 113/2/1 4/3/1
f 9/4/2 112/5/2 3/6/2
f 7/7/3 1/8/3 2/9/3
f 111/10/4 5/11/4 110/12/4
f 114/13/5 11/1/5 4/3/5
f 113/2/6 9/4/6 3/6/6
f 112/5/7 7/7/7 2/9/7
f 6/14/8 111/10/8 1/8/8
f 114/13/9 18/15/9 11/1/9
f 17/16/10 9/4/10 10/17/10
f 15/18/11 7/7/11 8/19/11
f 13/20/12 5/11/12 6/14/12
f 11/1/13 17/16/13 10/17/13
f 16/21/14 8/19/14 9/4/14
f 7/7/15 13/20/15 6/14/15
f 5/11/16 12/22/16 110/12/16
f 22/23/17 14/24/17 15/18/17
f 20/25/18 12/22/18 13/20/18
f 18/15/19 24/26/19 17/16/19
f 16/21/20 22/23/20 15/18/20
f 21/27/21 13/20/21 14/24/21
f 12/22/22 19/28/22 110/12/22
f 114/13/23 25/29/23 18/15/23
f 24/26/24 16/21/24 17/16/24
f 25/29/25 31/30/25 24/26/25
f 30/31/26 22/23/26 23/32/26
f 28/33/27 20/25/27 21/27/27
f 19/28/28 26/34/28 110/12/28
f 114/13/29 32/35/29 25/29/29
f 31/30/30 23/32/30 24/26/30
f 29/36/31 21/27/31 22/23/31
f 20/25/32 26/34/32 19/28/32
f 28/33/33 34/37/33 27/38/33
f 26/34/34 33/39/34 110/12/34
f 114/13/35 39/40/35 32/35/35
f 38/41/36 30/31/36 31/30/36
f 36/42/37 28/33/37 29/36/37
f 34/37/38 26/34/38 27/38/38
f 32/35/39 38/41/39 31/30/39
f 37/43/40 29/36/40 30/31/40
f 114/13/41 46/44/41 39/40/41
f 45/45/42 37/43/42 38/41/42
f 36/42/43 42/46/43 35/47/43
f 41/48/44 33/39/44 34/37/44
f 46/44/45 38/41/45 39/40/45
f 44/49/46 36/42/46 37/43/46
f 42/46/47 34/37/47 35/47/47
f 33/39/48 40/50/48 110/12/48
f 41/48/49 47/51/49 40/50/49
f 53/52/50 45/45/50 46/44/50
f 44/49/51 50/53/51 43/54/51
f 49/55/52 41/48/52 42/46/52
f 40/50/53 47/51/53 110/12/53
f 114/13/54 53/52/54 46/44/54
f 45/45/55 51/56/55 44/49/55
f 50/53/56 42/46/56 43/54/56
f 53/52/57 59/57/57 52/58/57
f 58/59/58 50/53/58 51/56/58
f 56/60/59 48/61/59 49/55/59
f 47/51/60 54/62/60 110/12/60
f 114/13/61 60/63/61 53/52/61
f 59/57/62 51/56/62 52/58/62
f 57/64/63 49/55/63 50/53/63
f 48/61/64 54/62/64 47/51/64
f 54/62/65 61/65/65 110/12/65
f 114/13/66 67/66/66 60/63/66
f 59/57/67 65/67/67 58/59/67
f 64/68/68 56/60/68 57/64/68
f 62/69/69 54/62/69 55/70/69
f 67/66/70 59/57/70 60/63/70
f 58/59/71 64/68/71 57/64/71
f 63/71/72 55/70/72 56/60/72
f 66/72/73 72/73/73 65/67/73
f 71/74/74 63/71/74 64/68/74
f 62/69/75 68/75/75 61/65/75
f 74/76/76 66/72/76 67/66/76
f 72/73/77 64/68/77 65/67/77
f 70/77/78 62/69/78 63/71/78
f 61/65/79 68/75/79 110/12/79
f 114/13/80 74/76/80 67/66/80
f 81/78/81 73/79/81 74/76/81
f 79/80/82 71/74/82 72/73/82
f 77/81/83 69/82/83 70/77/83
f 68/75/84 75/83/84 110/12/84
f 114/13/85 81/78/85 74/76/85
f 80/84/86 72/73/86 73/79/86
f 71/74/87 77/81/87 70/77/87
f 69/82/88 75/83/88 68/75/88
f 86/85/89 78/86/89 79/80/89
f 84/87/90 76/88/90 77/81/90
f 75/83/91 82/89/91 110/12/91
f 114/13/92 88/90/92 81/78/92
f 80/84/93 86/85/93 79/80/93
f 78/86/94 84/87/94 77/81/94
f 76/88/95 82/89/95 75/83/95
f 88/90/96 80/84/96 81/78/96
f 114/13/97 95/91/97 88/90/97
f 94/92/98 86/85/98 87/93/98
f 92/94/99 84/87/99 85/95/99
f 90/96/100 82/89/100 83/97/100
f 95/91/101 87/93/101 88/90/101
f 93/98/102 85/95/102 86/85/102
f 91/99/103 83/97/103 84/87/103
f 82/89/104 89/100/104 110/12/104
f 99/101/105 91/99/105 92/94/105
f 97/102/106 89/100/106 90/96/106
f 95/91/107 101/103/107 94/92/107
f 100/104/108 92/94/108 93/98/108
f 98/105/109 90/96/109 91/99/109
f 89/100/110 96/106/110 110/12/110
f 114/13/111 102/107/111 95/91/111
f 101/103/112 93/98/112 94/92/112
f 109/108/113 101/103/113 102/107/113
f 100/104/114 106/109/114 99/101/114
f 105/110/115 97/102/115 98/105/115
f 96/106/116 103/111/116 110/12/116
f 114/13/117 109/108/117 102/107/117
f 101/103/118 107/112/118 100/104/118
f 106/109/119 98/105/119 99/101/119
f 104/113/120 96/106/120 97/102/120
f 105/110/121 1/8/121 104/113/121
f 103/111/122 111/10/122 110/12/122
f 114/13/123 4/3/123 109/108/123
f 108/114/124 3/6/124 107/112/124
f 106/109/125 2/9/125 105/110/125
f 1/8/126 103/111/126 104/113/126
f 4/3/127 108/114/127 109/108/127
f 3/6/128 106/109/128 107/112/128
f 11/1/1 10/17/1 113/2/1
f 9/4/2 8/19/2 112/5/2
f 7/7/3 6/14/3 1/8/3
f 113/2/6 10/17/6 9/4/6
f 112/5/7 8/19/7 7/7/7
f 6/14/8 5/11/8 111/10/8
f 17/16/10 16/21/10 9/4/10
f 15/18/11 14/24/11 7/7/11
f 13/20/12 12/22/12 5/11/12
f 11/1/13 18/15/13 17/16/13
f 16/21/14 15/18/14 8/19/14
f 7/7/15 14/24/15 13/20/15
f 22/23/17 21/27/17 14/24/17
f 20/25/18 19/28/18 12/22/18
f 18/15/19 25/29/19 24/26/19
f 16/21/20 23/32/20 22/23/20
f 21/27/21 20/25/21 13/20/21
f 24/26/24 23/32/24 16/21/24
f 25/29/25 32/35/25 31/30/25
f 30/31/26 29/36/26 22/23/26
f 28/33/27 27/38/27 20/25/27
f 31/30/30 30/31/30 23/32/30
f 29/36/31 28/33/31 21/27/31
f 20/25/32 27/38/32 26/34/32
f 28/33/33 35/47/33 34/37/33
f 38/41/36 37/43/36 30/31/36
f 36/42/37 35/47/37 28/33/37
f 34/37/38 33/39/38 26/34/38
f 32/35/39 39/40/39 38/41/39
f 37/43/40 36/42/40 29/36/40
f 45/45/42 44/49/42 37/43/42
f 36/42/43 43/54/43 42/46/43
f 41/48/44 40/50/44 33/39/44
f 46/44/45 45/45/45 38/41/45
f 44/49/46 43/54/46 36/42/46
f 42/46/47 41/48/47 34/37/47
f 41/48/49 48/61/49 47/51/49
f 53/52/50 52/58/50 45/45/50
f 44/49/51 51/56/51 50/53/51
f 49/55/52 48/61/52 41/48/52
f 45/45/55 52/58/55 51/56/55
f 50/53/56 49/55/56 42/46/56
f 53/52/57 60/63/57 59/57/57
f 58/59/58 57/64/58 50/53/58
f 56/60/59 55/70/59 48/61/59
f 59/57/62 58/59/62 51/56/62
f 57/64/63 56/60/63 49/55/63
f 48/61/64 55/70/64 54/62/64
f 59/57/67 66/72/67 65/67/67
f 64/68/68 63/71/68 56/60/68
f 62/69/69 61/65/69 54/62/69
f 67/66/70 66/72/70 59/57/70
f 58/59/71 65/67/71 64/68/71
f 63/71/72 62/69/72 55/70/72
f 66/72/73 73/79/73 72/73/73
f 71/74/74 70/77/74 63/71/74
f 62/69/75 69/82/75 68/75/75
f 74/76/76 73/79/76 66/72/76
f 72/73/77 71/74/77 64/68/77
f 70/77/78 69/82/78 62/69/78
f 81/78/81 80/84/81 73/79/81
f 79/80/82 78/86/82 71/74/82
f 77/81/83 76/88/83 69/82/83
f 80/84/86 79/80/86 72/73/86
f 71/74/87 78/86/87 77/81/87
f 69/82/88 76/88/88 75/83/88
f 86/85/89 85/95/89 78/86/89
f 84/87/90 83/97/90 76/88/90
f 80/84/93 87/93/93 86/85/93
f 78/86/94 85/95/94 84/87/94
f 76/88/95 83/97/95 82/89/95
f 88/90/96 87/93/96 80/84/96
f 94/92/98 93/98/98 86/85/98
f 92/94/99 91/99/99 84/87/99
f 90/96/100 89/100/100 82/89/100
f 95/91/101 94/92/101 87/93/101
f 93/98/102 92/94/102 85/95/102
f 91/99/103 90/96/103 83/97/103
f 99/101/105 98/105/105 91/99/105
f 97/102/106 96/106/106 89/100/106
f 95/91/107 102/107/107 101/103/107
f 100/104/108 99/101/108 92/94/108
f 98/105/109 97/102/109 90/96/109
f 101/103/112 100/104/112 93/98/112
f 109/108/113 108/114/113 101/103/113
f 100/104/114 107/112/114 106/109/114
f 105/110/115 104/113/115 97/102/115
f 101/103/118 108/114/118 107/112/118
f 106/109/119 105/110/119 98/105/119
f 104/113/120 103/111/120 96/106/120
f 105/110/121 2/9/121 1/8/121
f 108/114/124 113/2/124 3/6/124
f 106/109/125 112/5/125 2/9/125
f 1/8/126 111/10/126 103/111/126
f 4/3/127 113/2/127 108/114/127
f 3/6/128 112/5/128 106/109/128
